<svg xmlns="http://www.w3.org/2000/svg" version="1.0" preserveAspectRatio="xMidYMid meet" viewBox="13 19.16 178.74 123.75">

<g transform="translate(0.000000,200.000000) scale(0.100000,-0.100000)" fill="#000000" stroke="none">
<path d="M925 1784 c-138 -59 -170 -77 -221 -126 -34 -32 -67 -76 -87 -117 -30 -62 -32 -72 -32 -176 0 -98 3 -116 26 -166 23 -49 25 -57 11 -65 -20 -13 -6 -37 17 -29 12 3 33 -10 65 -41 27 -25 75 -59 107 -74 33 -15 66 -33 74 -40 10 -8 31 -10 65 -5 48 7 50 6 50 -18 0 -13 -7 -30 -15 -37 -8 -7 -15 -25 -15 -41 0 -34 38 -64 70 -54 43 14 51 83 11 105 -13 6 -17 17 -14 30 6 24 35 26 53 5 29 -34 100 -8 100 37 0 21 25 47 46 48 6 0 9 -12 6 -28 -7 -53 56 -83 91 -44 33 37 8 92 -41 92 -29 0 -28 6 13 51 80 88 119 225 97 340 -23 127 -93 225 -212 299 -143 89 -170 95 -265 54z m164 -32 l25 -15 -50 -13 c-39 -10 -59 -10 -97 0 -41 10 -46 14 -33 25 39 32 108 34 155 3z m-250 -99 c-11 -38 -42 -157 -71 -267 -41 -161 -48 -200 -37 -206 11 -7 11 -10 -1 -14 -58 -18 -61 -17 -88 42 -22 48 -26 72 -26 152 -1 83 2 102 26 152 38 82 72 122 140 168 33 22 64 40 68 40 4 0 -1 -30 -11 -67z m139 32 c34 -14 42 -14 75 0 73 30 118 -8 97 -85 -19 -71 -95 -119 -166 -106 -92 18 -154 167 -81 196 30 12 32 12 75 -5z m269 -39 c150 -135 169 -354 44 -523 -32 -44 -60 -54 -80 -29 -7 8 -40 26 -74 41 -35 14 -69 35 -76 47 -11 17 -9 22 11 36 37 26 74 68 94 109 16 33 19 62 19 200 0 90 3 163 6 163 4 0 29 -20 56 -44z m-327 -240 c0 -87 -21 -141 -65 -170 -29 -19 -95 -33 -95 -20 0 8 77 308 85 332 3 8 18 -2 40 -26 34 -38 35 -42 35 -116z m237 40 c-8 -114 -47 -174 -137 -215 -45 -21 -130 -29 -130 -12 0 5 7 15 17 22 28 24 43 76 43 152 l0 75 44 -5 c51 -6 106 10 131 37 32 35 38 24 32 -54z m-295 -318 c26 -39 31 -69 17 -94 -7 -13 -20 -24 -29 -24 -32 0 -164 100 -149 114 4 4 102 23 130 25 9 0 23 -9 31 -21z m102 0 c13 -21 46 -121 46 -140 0 -21 -29 -5 -38 21 -6 16 -19 32 -30 35 -11 4 -22 19 -25 34 -3 15 -8 37 -12 50 -6 19 -4 22 19 22 16 0 31 -9 40 -22z m189 -41 c31 -16 57 -33 57 -38 0 -11 -41 -23 -65 -20 -19 3 -94 77 -95 94 0 12 37 -1 103 -36z m-89 -38 c14 -17 26 -35 26 -39 0 -9 -40 -34 -44 -28 -8 11 -22 98 -16 98 5 0 20 -14 34 -31z m-127 -45 c8 -21 -13 -42 -28 -27 -13 13 -5 43 11 43 6 0 13 -7 17 -16z m372 -8 c9 -10 8 -16 -4 -26 -19 -16 -41 1 -32 24 8 20 21 20 36 2z m-156 -32 c-6 -16 -29 -19 -38 -4 -4 6 -1 17 5 26 15 18 42 0 33 -22z m-110 -108 c7 -18 -1 -26 -25 -26 -11 0 -18 7 -18 20 0 23 35 28 43 6z"/>
<path d="M934 1645 c-5 -11 -1 -21 9 -27 10 -5 17 -19 17 -32 0 -22 37 -66 56 -66 17 0 54 45 54 65 0 10 7 26 16 36 9 10 13 23 9 28 -10 16 -54 -20 -55 -44 0 -30 -20 -47 -37 -34 -7 7 -13 19 -13 28 0 10 -11 28 -25 41 -22 21 -25 22 -31 5z"/>
<path d="M183 897 c-12 -15 -53 -113 -53 -125 0 -24 31 -20 44 6 13 25 15 26 21 7 17 -50 26 -65 40 -65 11 0 14 9 13 31 -2 19 2 34 10 36 8 3 12 -6 12 -30 0 -41 25 -67 67 -67 38 0 63 27 63 68 0 41 -36 67 -84 59 -28 -4 -33 -3 -29 11 6 24 -16 49 -59 66 -28 12 -38 13 -45 3z m67 -56 c0 -16 -26 -30 -39 -22 -8 5 -11 17 -6 30 5 17 10 19 26 11 10 -6 19 -14 19 -19z m105 -86 c0 -23 -5 -31 -22 -33 -19 -3 -23 1 -23 26 0 33 8 44 30 40 9 -2 15 -14 15 -33z"/>
<path d="M1708 889 c-24 -13 -23 -55 3 -124 15 -41 25 -55 36 -51 8 3 16 6 18 6 2 0 -2 18 -10 40 -13 37 -13 41 5 50 14 7 20 7 20 0 0 -20 41 -50 69 -50 33 0 77 31 67 48 -4 7 -15 6 -36 -6 -42 -24 -49 -6 -11 26 32 26 33 29 17 45 -25 24 -63 21 -89 -7 -25 -27 -68 -38 -74 -19 -3 7 7 17 22 23 14 5 23 14 20 20 -8 13 -35 12 -57 -1z m142 -38 c0 -12 -29 -35 -36 -28 -11 10 5 37 21 37 8 0 15 -4 15 -9z"/>
<path d="M1624 869 c-9 -15 11 -33 30 -26 9 4 13 13 10 22 -7 17 -30 20 -40 4z"/>
<path d="M1570 841 c0 -34 35 -154 47 -158 25 -10 27 6 8 87 -15 64 -22 80 -37 80 -10 0 -18 -4 -18 -9z"/>
<path d="M421 778 c-7 -35 -14 -73 -17 -85 -3 -18 0 -23 16 -23 19 0 24 10 32 65 2 12 11 20 23 20 18 0 20 -6 17 -52 -3 -42 -1 -53 11 -53 16 0 22 12 32 71 6 31 3 39 -16 53 -13 9 -31 16 -40 16 -10 0 -15 8 -15 22 1 13 -6 24 -15 26 -12 2 -19 -11 -28 -60z"/>
<path d="M1519 833 c-1 -5 -1 -16 0 -25 1 -10 -4 -18 -12 -18 -24 0 -67 -40 -67 -64 0 -39 27 -66 69 -66 20 0 45 6 54 13 18 13 18 18 -9 145 -4 20 -32 32 -35 15z m11 -98 c0 -14 1 -28 3 -32 1 -5 -8 -9 -20 -11 -26 -4 -41 31 -23 53 19 23 40 18 40 -10z"/>
<path d="M564 773 c-13 -85 -11 -127 7 -131 13 -2 18 12 26 80 9 80 6 97 -19 98 -4 0 -10 -21 -14 -47z"/>
<path d="M1315 810 c-8 -13 3 -30 20 -30 14 0 27 24 18 34 -10 9 -31 7 -38 -4z"/>
<path d="M1385 809 c-7 -11 2 -131 12 -156 3 -7 12 -13 20 -13 13 0 15 11 9 75 -4 42 -9 82 -13 90 -6 18 -19 19 -28 4z"/>
<path d="M1645 784 c11 -62 28 -92 46 -85 15 6 15 10 0 61 -11 37 -23 56 -35 58 -16 4 -18 -1 -11 -34z"/>
<path d="M636 788 c-7 -13 -16 -51 -20 -85 -4 -50 -3 -62 10 -67 23 -9 24 -8 24 17 0 42 12 66 34 69 28 4 27 22 -2 26 -43 6 -16 27 34 27 37 0 49 4 49 15 0 11 -14 16 -57 17 -50 3 -59 0 -72 -19z"/>
<path d="M1266 768 c-3 -13 -7 -39 -9 -58 l-3 -35 -17 38 c-23 49 -46 46 -62 -8 -13 -43 -17 -39 -32 30 -7 30 -14 40 -28 40 -23 0 -23 -21 3 -100 14 -42 21 -51 44 -53 23 -3 28 2 36 30 l9 33 13 -27 c10 -21 20 -28 41 -28 31 0 36 15 42 110 1 35 -2 45 -15 48 -11 2 -19 -5 -22 -20z"/>
<path d="M1320 746 c0 -7 3 -34 6 -60 6 -37 11 -46 27 -46 18 0 19 5 13 46 -3 26 -6 53 -6 60 0 8 -9 14 -20 14 -11 0 -20 -6 -20 -14z"/>
<path d="M720 691 c0 -42 4 -60 14 -64 19 -7 26 13 26 74 0 42 -3 49 -20 49 -18 0 -20 -7 -20 -59z"/>
<path d="M798 739 c-14 -8 -18 -23 -18 -64 0 -48 2 -55 20 -55 17 0 20 7 20 50 0 43 3 50 20 50 21 0 23 -5 20 -62 -1 -32 2 -38 19 -38 21 0 27 19 23 80 -3 43 -60 65 -104 39z"/>
<path d="M950 737 c-18 -9 -26 -22 -28 -45 -4 -42 11 -60 51 -64 43 -4 36 -23 -8 -23 -46 0 -44 -29 2 -33 60 -6 73 10 73 89 0 65 -1 70 -26 79 -32 12 -34 12 -64 -3z m58 -46 c4 -29 -9 -44 -31 -35 -20 7 -23 50 -4 57 20 9 32 2 35 -22z"/>
</g>
</svg>